# xmcd
#
# Track frame offsets:
#	150
#	16807
#	36080
#	53332
#	69150
#	83125
#	98680
#	127117
#	144362
#	159742
#	171850
#	192382
#	208857
#	229957
#	250312
#	265740
#	285395
#	306157
#	320655
#	333090
#
# Disc length: 4674 seconds
#
# Revision: 1
# Processed by: cddbd v1.5.1PL0 Copyright (c) Steve Scherf et al.
# Submitted via: audiograbber 1.83.01
#
DISCID=14124014
DTITLE=Various Artist - Hit Disc 63
DYEAR=1999
DGENRE=Top 40
TTITLE0=Gigolo - Gigolo
TTITLE1=Janet  - Everytime
TTITLE2=Kylie Minogue - Dancing Queen
TTITLE3=House Of Pain - Jump Around
TTITLE4=Brian Setzer - This Ole House
TTITLE5=Five - Got The Feeling
TTITLE6=Prince - 1999
TTITLE7=Marie Wilson - Rescue Me
TTITLE8=Stars On 45 - If You Could Read  My Mind
TTITLE9=Danni Leigh - If The Jukebox Took Tears
TTITLE10=Marilyn Manson - I Don't Like The Drugs
TTITLE11=A+ - Enjoy Yourself
TTITLE12=New Rascals - You Get What You Give
TTITLE13=Homegrown - Surfergirl
TTITLE14=Bryan Adams - When You're Gone
TTITLE15=The Verve - Sonnet
TTITLE16=Elliott Smith - Waltz #2
TTITLE17=Faith Hill - The Kiss
TTITLE18=Seven Mary Three - Each Little Mystery
TTITLE19=The Mavis's - Puberty Song
EXTD=
EXTT0=
EXTT1=
EXTT2=
EXTT3=
EXTT4=
EXTT5=
EXTT6=
EXTT7=
EXTT8=
EXTT9=
EXTT10=
EXTT11=
EXTT12=
EXTT13=
EXTT14=
EXTT15=
EXTT16=
EXTT17=
EXTT18=
EXTT19=
PLAYORDER=
